<?xml version="1.0" encoding="UTF-8"?>
<!DOCTYPE svg PUBLIC "-//W3C//DTD SVG 1.1//EN" "http://www.w3.org/Graphics/SVG/1.1/DTD/svg11.dtd">
<!-- Creator: CorelDRAW -->
<svg xmlns="http://www.w3.org/2000/svg" xml:space="preserve" width="210mm" height="297mm" version="1.1" style="shape-rendering:geometricPrecision; text-rendering:geometricPrecision; image-rendering:optimizeQuality; fill-rule:evenodd; clip-rule:evenodd"
viewBox="0 0 21000 29700"
 xmlns:xlink="http://www.w3.org/1999/xlink"
 xmlns:xodm="http://www.corel.com/coreldraw/odm/2003">
 <defs>
  <style type="text/css">
   <![CDATA[
    .str0 {stroke:#3E4095;stroke-width:20;stroke-miterlimit:22.9256}
    .fil0 {fill:#3E4095;fill-rule:nonzero}
   ]]>
  </style>
 </defs>
 <g id="Layer_x0020_1">
  <metadata id="CorelCorpID_0Corel-Layer"/>
  <path class="fil0 str0" d="M10173.61 23065.18l-6501.38 -6069.63c-151.12,-140.32 -295.03,-291.43 -428.15,-446.13l3130.16 0c813.12,0 1547.09,-489.31 1860.11,-1241.27l377.78 -906.67 1773.76 3939.69c136.72,305.83 435.35,503.71 769.95,507.3 334.6,3.59 640.43,-179.89 791.53,-478.53l1525.5 -3054.6 61.17 122.33c341.79,683.6 1039.79,1115.35 1802.54,1115.35l3759.8 -0.01c-133.13,154.7 -277.04,305.82 -428.15,446.13l-6501.38 6066.04c-269.85,251.86 -626.04,392.18 -996.62,392.18 -370.58,0 -726.78,-140.32 -996.62,-392.18zm9908.59 -8242.75l-4749.21 0c-107.95,0 -208.68,-61.17 -259.05,-158.31l-834.71 -1665.82c-147.51,-291.43 -446.13,-478.53 -773.54,-478.53 -327.4,0 -626.04,183.5 -773.54,478.53l-1489.53 2979.05 -1834.93 -4098c-140.32,-313.02 -456.93,-514.5 -798.74,-507.3 -341.8,7.19 -651.22,212.27 -784.33,532.48l-1144.14 2745.19c-43.17,107.94 -151.12,176.3 -266.24,176.3l-3838.94 0c-93.55,0 -179.89,14.39 -262.65,39.57 -205.08,-575.66 -313.01,-1187.3 -313.01,-1809.73l0 -208.68c0,-2514.93 1816.94,-4659.26 4295.89,-5073.03 1640.62,-273.42 3310.04,262.65 4482.95,1435.57l431.75 431.75 431.75 -431.75c1172.9,-1172.91 2842.33,-1708.99 4482.97,-1435.56 2478.94,413.76 4295.87,2558.1 4295.87,5073.02l0 208.68c0,608.05 -100.74,1205.28 -298.62,1766.56l0 0.01z"/>
 </g>
</svg>
